<svg xmlns="http://www.w3.org/2000/svg" viewBox="-55 -25 700 530">
	<line y1="0" x2="0" stroke="#333" y2="480" x1="0" />
	<line y1="480" x2="640" stroke="#333" y2="480" x1="0" />
	<text y="480" x="-4" dominant-baseline="middle" text-anchor="end" fill="#333">0</text>
	<text y="240" x="-4" dominant-baseline="middle" text-anchor="end" fill="#333">10</text>
	<text y="0" x="-4" dominant-baseline="middle" text-anchor="end" fill="#333">20</text>
	<text y="490" x="80.0" dominant-baseline="middle" text-anchor="middle" fill="#333">Apples</text>
	<text y="490" x="240.0" dominant-baseline="middle" text-anchor="middle" fill="#333">Oranges</text>
	<text y="490" x="400.0" dominant-baseline="middle" text-anchor="middle" fill="#333">Pears</text>
	<text y="490" x="560.0" dominant-baseline="middle" text-anchor="middle" fill="#333">Bananas</text>
	<g>
		<rect height="20" width="180" stroke="#333" y="-20" x="460" fill="none" />
		<rect y="-15" width="10" height="10" x="464" fill="#e41a1c" />
		<text y="-10" x="478" dominant-baseline="middle" fill="#333">John</text>
		<rect y="-15" width="10" height="10" x="528" fill="#377eb8" />
		<text y="-10" x="542" dominant-baseline="middle" fill="#333">Jane</text>
		<rect y="-15" width="10" height="10" x="592" fill="#4daf4a" />
		<text y="-10" x="606" dominant-baseline="middle" fill="#333">Joe</text>
	</g>
	<g>
		<rect height="72" width="53" stroke="white" y="407" x="54.0" fill="#e41a1c">
			<title>Apples - John: 3</title>
		</rect>
		<rect height="48" width="53" stroke="white" y="359" x="54.0" fill="#377eb8">
			<title>Apples - Jane: 2</title>
		</rect>
		<rect height="120" width="53" stroke="white" y="239" x="54.0" fill="#4daf4a">
			<title>Apples - Joe: 5</title>
		</rect>
	</g>
	<g>
		<rect height="96" width="53" stroke="white" y="383" x="214.0" fill="#e41a1c">
			<title>Oranges - John: 4</title>
		</rect>
		<rect height="48" width="53" stroke="white" y="335" x="214.0" fill="#377eb8">
			<title>Oranges - Jane: 2</title>
		</rect>
		<rect height="72" width="53" stroke="white" y="263" x="214.0" fill="#4daf4a">
			<title>Oranges - Joe: 3</title>
		</rect>
	</g>
	<g>
		<rect height="96" width="53" stroke="white" y="383" x="374.0" fill="#e41a1c">
			<title>Pears - John: 4</title>
		</rect>
		<rect height="72" width="53" stroke="white" y="311" x="374.0" fill="#377eb8">
			<title>Pears - Jane: 3</title>
		</rect>
		<rect height="96" width="53" stroke="white" y="215" x="374.0" fill="#4daf4a">
			<title>Pears - Joe: 4</title>
		</rect>
	</g>
	<g>
		<rect height="120" width="53" stroke="white" y="359" x="534.0" fill="#e41a1c">
			<title>Bananas - John: 5</title>
		</rect>
		<rect height="24" width="53" stroke="white" y="335" x="534.0" fill="#377eb8">
			<title>Bananas - Jane: 1</title>
		</rect>
		<rect height="48" width="53" stroke="white" y="287" x="534.0" fill="#4daf4a">
			<title>Bananas - Joe: 2</title>
		</rect>
	</g>
</svg>

