<svg font-family="sans-serif" font-size="16" viewBox="-55 -25 700 530" xmlns="http://www.w3.org/2000/svg">
	<style>
		@media (prefers-color-scheme: dark) {
			[fill="#333"] {fill: white}
			[stroke="#333"] {stroke: white}
		}
	</style>
	<g role="table">
		<line stroke="#333" x1="0" x2="0" y1="0" y2="480" />
		<line stroke="#333" x1="0" x2="640" y1="480" y2="480" />
		<line opacity="0.3" stroke="#333" x1="0" x2="640" y1="240" y2="240" />
		<g aria-hidden="true">
			<text dominant-baseline="middle" fill="#333" text-anchor="end" x="-4" y="480">0</text>
			<text dominant-baseline="middle" fill="#333" text-anchor="end" x="-4" y="240">11</text>
			<text dominant-baseline="middle" fill="#333" text-anchor="end" x="-4" y="0">22</text>
		</g>
		<g role="row">
			<text dominant-baseline="middle" fill="#333" role="columnheader" text-anchor="middle" x="80" y="490">Apples</text>
			<text dominant-baseline="middle" fill="#333" role="columnheader" text-anchor="middle" x="240" y="490">Oranges</text>
			<text dominant-baseline="middle" fill="#333" role="columnheader" text-anchor="middle" x="400" y="490">Pears</text>
			<text dominant-baseline="middle" fill="#333" role="columnheader" text-anchor="middle" x="560" y="490">Bananas</text>
		</g>
		<g aria-hidden="true">
			<rect fill="none" height="40" rx="2" ry="2" stroke="#333" width="530" x="110" y="-20" />
			<rect fill="#377eb8" height="10" rx="2" ry="2" width="10" x="114" y="-15" />
			<text dominant-baseline="middle" fill="#333" x="128" y="-10">Monozygotic (431)</text>
			<rect fill="#e41a1c" height="10" rx="2" ry="2" width="10" x="308" y="-15" />
			<text dominant-baseline="middle" fill="#333" x="322" y="-10">Dizygotic (464)</text>
			<rect fill="#4daf4a" height="10" rx="2" ry="2" width="10" x="482" y="-15" />
			<text dominant-baseline="middle" fill="#333" x="496" y="-10">Trizygotic (0)</text>
			<rect fill="#984ea3" height="10" rx="2" ry="2" width="10" x="114" y="5" />
			<text dominant-baseline="middle" fill="#333" x="128" y="10">Quadrizygotic (0)</text>
			<rect fill="#ff7f00" height="10" rx="2" ry="2" width="10" x="308" y="5" />
			<text dominant-baseline="middle" fill="#333" x="322" y="10">Other (82)</text>
		</g>
		<polygon fill="#377eb8" points="80,413.5455 240,391.7273 400,391.7273 560,369.9091 560,479 400,479 240,479 80,479" stroke="white" />
		<polygon fill="#e41a1c" points="80,369.9091 240,348.0909 400,326.2727 560,348.0909 560,369.9091 400,391.7273 240,391.7273 80,413.5455" stroke="white" />
		<polygon fill="#4daf4a" points="80,260.8182 240,282.6364 400,239 560,304.4545 560,348.0909 400,326.2727 240,348.0909 80,369.9091" stroke="white" />
		<polygon fill="#984ea3" points="80,173.5455 240,239 400,217.1818 560,217.1818 560,304.4545 400,239 240,282.6364 80,260.8182" stroke="white" />
		<polygon fill="#ff7f00" points="80,42.6364 240,151.7273 400,108.0909 560,173.5455 560,217.1818 400,217.1818 240,239 80,173.5455" stroke="white" />
		<g fill="#377eb8" role="row" stroke="white">
			<circle cx="80" cy="413.5455" r="4" role="cell">
				<title>3</title>
			</circle>
			<circle cx="240" cy="391.7273" r="4" role="cell">
				<title>4</title>
			</circle>
			<circle cx="400" cy="391.7273" r="4" role="cell">
				<title>4</title>
			</circle>
			<circle cx="560" cy="369.9091" r="4" role="cell">
				<title>5</title>
			</circle>
		</g>
		<g fill="#e41a1c" role="row" stroke="white">
			<circle cx="80" cy="369.9091" r="4" role="cell">
				<title>2</title>
			</circle>
			<circle cx="240" cy="348.0909" r="4" role="cell">
				<title>2</title>
			</circle>
			<circle cx="400" cy="326.2727" r="4" role="cell">
				<title>3</title>
			</circle>
			<circle cx="560" cy="348.0909" r="4" role="cell">
				<title>1</title>
			</circle>
		</g>
		<g fill="#4daf4a" role="row" stroke="white">
			<circle cx="80" cy="260.8182" r="4" role="cell">
				<title>5</title>
			</circle>
			<circle cx="240" cy="282.6364" r="4" role="cell">
				<title>3</title>
			</circle>
			<circle cx="400" cy="239" r="4" role="cell">
				<title>4</title>
			</circle>
			<circle cx="560" cy="304.4545" r="4" role="cell">
				<title>2</title>
			</circle>
		</g>
		<g fill="#984ea3" role="row" stroke="white">
			<circle cx="80" cy="173.5455" r="4" role="cell">
				<title>4</title>
			</circle>
			<circle cx="240" cy="239" r="4" role="cell">
				<title>2</title>
			</circle>
			<circle cx="400" cy="217.1818" r="4" role="cell">
				<title>1</title>
			</circle>
			<circle cx="560" cy="217.1818" r="4" role="cell">
				<title>4</title>
			</circle>
		</g>
		<g fill="#ff7f00" role="row" stroke="white">
			<circle cx="80" cy="42.6364" r="4" role="cell">
				<title>6</title>
			</circle>
			<circle cx="240" cy="151.7273" r="4" role="cell">
				<title>4</title>
			</circle>
			<circle cx="400" cy="108.0909" r="4" role="cell">
				<title>5</title>
			</circle>
			<circle cx="560" cy="173.5455" r="4" role="cell">
				<title>2</title>
			</circle>
		</g>
	</g>
</svg>
