<svg font-family="sans-serif" font-size="16" viewBox="-55 -25 700 530" xmlns="http://www.w3.org/2000/svg">
	<style>
		@media (prefers-color-scheme: dark) {
			[fill="#333"] {fill: white}
			[stroke="#333"] {stroke: white}
		}
	</style>
	<g role="table">
		<line stroke="#333" x1="0" x2="0" y1="0" y2="480" />
		<line stroke="#333" x1="0" x2="640" y1="480" y2="480" />
		<line opacity="0.3" stroke="#333" x1="0" x2="640" y1="240" y2="240" />
		<g aria-hidden="true">
			<text dominant-baseline="middle" fill="#333" text-anchor="end" x="-4" y="480">0</text>
			<text dominant-baseline="middle" fill="#333" text-anchor="end" x="-4" y="240">7</text>
			<text dominant-baseline="middle" fill="#333" text-anchor="end" x="-4" y="0">14</text>
		</g>
		<g role="row">
			<text dominant-baseline="middle" fill="#333" role="columnheader" text-anchor="middle" x="80" y="490">Apples</text>
			<text dominant-baseline="middle" fill="#333" role="columnheader" text-anchor="middle" x="240" y="490">Oranges</text>
			<text dominant-baseline="middle" fill="#333" role="columnheader" text-anchor="middle" x="400" y="490">Pears</text>
			<text dominant-baseline="middle" fill="#333" role="columnheader" text-anchor="middle" x="560" y="490">Bananas</text>
		</g>
		<polygon fill="#377eb8" points="80,376.1429 240,341.8571 400,341.8571 560,307.5714 560,479 400,479 240,479 80,479" stroke="white" />
		<polygon fill="#e41a1c" points="80,307.5714 240,273.2857 400,239 560,273.2857 560,307.5714 400,341.8571 240,341.8571 80,376.1429" stroke="white" />
		<polygon fill="#4daf4a" points="80,136.1429 240,170.4286 400,101.8571 560,204.7143 560,273.2857 400,239 240,273.2857 80,307.5714" stroke="white" />
		<g fill="#377eb8" role="row" stroke="white">
			<circle cx="80" cy="376.1429" r="4" role="cell">
				<title>3</title>
			</circle>
			<circle cx="240" cy="341.8571" r="4" role="cell">
				<title>4</title>
			</circle>
			<circle cx="400" cy="341.8571" r="4" role="cell">
				<title>4</title>
			</circle>
			<circle cx="560" cy="307.5714" r="4" role="cell">
				<title>5</title>
			</circle>
		</g>
		<g fill="#e41a1c" role="row" stroke="white">
			<circle cx="80" cy="307.5714" r="4" role="cell">
				<title>2</title>
			</circle>
			<circle cx="240" cy="273.2857" r="4" role="cell">
				<title>2</title>
			</circle>
			<circle cx="400" cy="239" r="4" role="cell">
				<title>3</title>
			</circle>
			<circle cx="560" cy="273.2857" r="4" role="cell">
				<title>1</title>
			</circle>
		</g>
		<g fill="#4daf4a" role="row" stroke="white">
			<circle cx="80" cy="136.1429" r="4" role="cell">
				<title>5</title>
			</circle>
			<circle cx="240" cy="170.4286" r="4" role="cell">
				<title>3</title>
			</circle>
			<circle cx="400" cy="101.8571" r="4" role="cell">
				<title>4</title>
			</circle>
			<circle cx="560" cy="204.7143" r="4" role="cell">
				<title>2</title>
			</circle>
		</g>
	</g>
</svg>
